<svg xmlns="http://www.w3.org/2000/svg" xmlns:xlink="http://www.w3.org/1999/xlink" version="1.1" id="Layer_1" x="0px" y="0px" width="100px" height="100px" viewBox="0 0 100 100" enable-background="new 0 0 100 100" xml:space="preserve">
<path fill="#000000" d="M71.198,50.407c-0.751,2.804-8.984,19.365-11.788,18.614l0,0c-2.804-0.752-1.654-19.21-0.902-22.014  l6.117-22.832c0.751-2.804,3.634-4.467,6.437-3.716l2.538,0.68c2.804,0.751,4.468,3.632,3.717,6.436L71.198,50.407z" style="fill: #555;"/>
<path fill="#000000" d="M47.816,79.964c-5.681,0-9.054-1.112-10.536-3.448c-0.89-1.398-1.448-3.777,0.935-7.166  c1.061-1.509,1.048-2.206,0.986-2.311c-0.007-0.012-0.772-1.217-5.702-1.48c-2.951-0.157-5.658,0.13-5.685,0.133  c-1.445,0.154-2.739-0.888-2.896-2.33c-0.155-1.443,0.888-2.739,2.331-2.896c0.127-0.014,3.16-0.334,6.53-0.155  c5.249,0.281,8.503,1.608,9.947,4.06c0.919,1.557,1.453,4.209-1.214,8.002c-0.531,0.757-0.681,1.198-0.723,1.388  c0.538,0.408,2.804,1.176,8.468,0.882c4.135-0.216,7.929-0.875,7.966-0.882c1.43-0.251,2.791,0.704,3.042,2.134  s-0.704,2.791-2.134,3.042c-0.176,0.03-4.354,0.758-8.936,0.97C49.362,79.945,48.568,79.964,47.816,79.964z" style="fill: #555;"/>
</svg>